#!OML:ASF F:\VICON\USERDATA\INSTALL\rory3\rory3.ASF
:FULLY-SPECIFIED
:DEGREES
11
root -0.6810460000000004 18.5364 -16.553500000000014 1.021240000000001 6.497440000000015 -4.580690000000001
lfemur -25.651499999999977 -3.0839700000000025 -20.1672
ltibia 22.970499999999937
lfoot 3.264989999999995 -12.262400000000007
ltoes -16.904300000000006
rfemur 3.2541799999999768 3.5645500000000014 32.1851
rtibia 72.858
rfoot 26.143199999999993 -13.328700000000008
rtoes 19.25509999999998
lowerback 13.853599999999998 1.699590000000001 3.6956600000000046
upperback -1.05116 3.019509999999998 1.5196300000000003
thorax -8.81684 1.3202599999999998 -1.0962999999999985
lowerneck -18.3723 -5.461540000000003 -1.44976
upperneck 15.212399999999999 -7.60726 2.83736
head 7.88349 -3.4144099999999993 0.25554799999999983
lclavicle -1.261039999999999e-14 1.4908900000000056e-15
lhumerus -68.94399999999999 -6.832030000000016 98.4683
lradius 103.423
lwrist 32.9946
lhand -23.912400000000005 0.9113389999999993
lfingers 7.12502
lthumb 2.5620000000000007 30.8757
rclavicle -1.261039999999999e-14 1.4908900000000056e-15
rhumerus -45.96820000000001 17.66069999999998 -100.593
rradius 112.028
rwrist -6.983720000000003
rhand -19.2384 40.0632
rfingers 7.12502
rthumb 7.075010000000001 10.2014
12
root -0.6738859999999994 18.1512 -15.096100000000025 -0.6319100000000049 8.632620000000017 -4.2486200000000025
lfemur -24.916199999999982 -4.20656 -20.9697
ltibia 30.8549
lfoot -2.6013199999999963 -15.721299999999994
ltoes -2.7595100000000015
rfemur -1.4423399999999873 -1.1338799999999982 29.862
rtibia 84.87859999999998
rfoot 21.820400000000014 -14.81750000000001
rtoes 10.217700000000004
lowerback 15.6528 0.7428739999999999 3.579219999999994
upperback -0.7077189999999995 1.7811499999999996 1.265880000000001
thorax -9.51428 0.710874 -1.0791999999999993
lowerneck -18.203099999999992 -5.436840000000002 -1.7489899999999998
upperneck 15.382299999999999 -7.684150000000005 3.752510000000001
head 7.96638 -3.374620000000001 0.595373
lclavicle -1.4414999999999998e-14 3.106010000000015e-15
lhumerus -65.96189999999997 -9.669240000000006 99.4082
lradius 103.56
lwrist 32.0728
lhand -24.9056 -0.30872000000000344
lfingers 7.12502
lthumb 1.6027700000000003 29.665
rclavicle -1.4414999999999998e-14 3.106010000000015e-15
rhumerus -47.87970000000001 15.63870000000001 -101.58199999999998
rradius 108.977
rwrist -8.091709999999999
rhand -18.3413 39.7941
rfingers 7.12502
rthumb 7.9409699999999965 9.96328
13
root -0.6419870000000004 17.6832 -13.638699999999968 -1.443430000000009 6.8737799999999964 -3.8860800000000024
lfemur -23.751500000000007 -3.501830000000002 -21.6148
ltibia 40.95959999999997
lfoot -11.770499999999998 -10.711399999999992
ltoes -1.5494300000000152
rfemur -7.638069999999987 -2.1090799999999987 27.0496
rtibia 96.09899999999996
rfoot 21.07320000000003 -13.1636
rtoes 16.75530000000001
lowerback 16.497299999999996 1.0708700000000004 2.7687700000000013
upperback -0.0810291999999988 2.0672200000000003 1.152009999999999
thorax -9.31492 0.8915220000000001 -0.8248319999999983
lowerneck -18.957100000000004 -5.346249999999999 -1.6914200000000004
upperneck 15.242900000000002 -7.620299999999997 4.051630000000003
head 8.05929 -3.300180000000002 0.676018
lclavicle 2.6647900000000017e-14 6.0015899999999974e-15
lhumerus -61.0847 -12.545199999999998 100.141
lradius 104.07300000000001
lwrist 33.4506
lhand -25.856200000000005 0.7974870000000007
lfingers 7.12502
lthumb 0.6846069999999982 30.776099999999996
rclavicle 2.6647900000000017e-14 6.0015899999999974e-15
rhumerus -48.4543 14.403499999999998 -101.75299999999999
rradius 104.67300000000002
rwrist -7.877909999999999
rhand -19.721600000000002 40.7391
rfingers 7.12502
rthumb 6.608550000000003 10.862200000000001
14
root -0.6484519999999996 17.3439 -12.230500000000003 -0.919679999999989 5.838120000000005 -1.197350000000002
lfemur -20.576500000000003 -3.2876099999999955 -24.940400000000007
ltibia 45.960899999999995
lfoot -20.120700000000024 -4.839219999999996
ltoes -2.113609999999996
rfemur -16.737900000000007 -3.9531999999999994 21.67899999999999
rtibia 105.49199999999996
rfoot 21.48100000000001 -7.948310000000005
rtoes 20.7458
lowerback 17.217099999999995 1.2889699999999993 -0.6732819999999962
upperback 0.10499400000000225 1.6157099999999998 0.4058429999999973
thorax -9.60202 0.8143770000000001 0.4161539999999989
lowerneck -19.7993 -5.199999999999997 -1.3852800000000012
upperneck 15.0818 -7.527090000000001 4.23302
head 8.14386 -3.2078099999999967 0.6818129999999999
lclavicle 2.0126900000000004e-14 -1.2920999999999957e-15
lhumerus -54.975300000000004 -14.938499999999998 99.9882
lradius 104.801
lwrist 35.34040000000001
lhand -23.8128 0.554185000000003
lfingers 7.12502
lthumb 2.6581399999999986 30.5174
rclavicle 2.0126900000000004e-14 -1.2920999999999957e-15
rhumerus -49.7117 12.533699999999996 -101.741
rradius 100.855
rwrist -7.755650000000003
rhand -20.117399999999993 38.011500000000005
rfingers 7.12502
rthumb 6.226479999999993 8.122989999999998
15
root -0.6171679999999995 17.0121 -10.8737 -0.303655 4.695650000000004 1.8641300000000074
lfemur -15.819500000000001 -3.195420000000006 -28.850799999999996
ltibia 47.0424
lfoot -25.10709999999996 1.0977900000000052
ltoes 0.5706030000000162
rfemur -27.274799999999992 -5.858230000000006 16.563600000000008
rtibia 112.24099999999996
rfoot 17.163400000000003 -4.738529999999999
rtoes 12.884599999999988
lowerback 17.640699999999995 1.3443299999999994 -4.042880000000006
upperback 0.14320999999999873 0.9205039999999993 -0.3418609999999973
thorax -9.83479 0.6247969999999999 1.6890300000000023
lowerneck -19.505999999999997 -4.833300000000002 -1.5204799999999996
upperneck 14.0741 -6.990290000000002 4.522830000000001
head 7.75834 -2.959390000000001 0.884522
lclavicle 4.733559999999993e-15 7.653210000000021e-15
lhumerus -48.18130000000001 -16.519500000000004 99.1563
lradius 105.492
lwrist 35.0636
lhand -27.5321 3.8972099999999994
lfingers 7.12502
lthumb -0.934020999999998 33.87489999999999
rclavicle 4.733559999999993e-15 7.653210000000021e-15
rhumerus -51.8971 11.134800000000002 -101.297
rradius 99.24379999999998
rwrist -7.232550000000003
rhand -17.972699999999996 38.8516
rfingers 7.12502
rthumb 8.296679999999999 9.034499999999998
16
root -0.5780160000000004 16.9114 -9.487040000000025 0.5614129999999999 4.537980000000001 0.7870250000000061
lfemur -10.778499999999996 -3.987150000000006 -27.90089999999999
ltibia 46.127300000000005
lfoot -27.776300000000038 3.325530000000011
ltoes -2.0863600000000186
rfemur -37.73429999999999 -7.665249999999988 18.436600000000013
rtibia 113.2339999999999
rfoot 15.644899999999991 -2.038939999999994
rtoes 8.530470000000008
lowerback 17.272500000000004 0.44045999999999963 -3.3927600000000107
upperback 0.3983430000000001 -0.0313934999999983 0.5925050000000003
thorax -9.28343 0.15288199999999896 2.5805999999999982
lowerneck -20.6292 -4.350970000000001 -2.1704499999999998
upperneck 13.9436 -6.023580000000003 3.971090000000003
head 7.87225 -2.57637 0.9104889999999997
lclavicle 7.70291000000001e-15 -4.969619999999871e-17
lhumerus -40.72890000000002 -15.903600000000003 98.373
lradius 107.701
lwrist 34.8846
lhand -24.6967 4.916600000000002
lfingers 7.12502
lthumb 1.80446 34.8887
rclavicle 7.70291000000001e-15 -4.969619999999871e-17
rhumerus -54.339 11.437599999999998 -100.187
rradius 101.16099999999999
rwrist -7.572860000000004
rhand -16.7374 39.8013
rfingers 7.12502
rthumb 9.48873 10.0349
17
root -0.5610180000000005 16.975 -8.050409999999989 0.7625929999999967 3.714750000000007 0.7898979999999929
lfemur -3.8339800000000164 -3.6701200000000003 -28.206300000000006
ltibia 42.542499999999976
lfoot -26.185700000000033 4.1257400000000235
ltoes -10.5147
rfemur -44.328299999999984 -7.129269999999993 19.582799999999985
rtibia 109.44600000000005
rfoot 12.238500000000002 2.0051500000000235
rtoes 8.762970000000012
lowerback 18.117199999999997 0.3114870000000002 -4.004169999999991
upperback 0.5336929999999975 -0.3238720000000028 0.9329939999999984
thorax -9.58361 0.05476220000000065 3.383659999999999
lowerneck -21.7012 -4.15878 -1.2395500000000002
upperneck 13.6994 -5.807089999999998 2.8903300000000005
head 7.8971 -2.5235100000000004 0.41591500000000015
lclavicle -3.975690000000026e-16 -3.18055e-15
lhumerus -35.01040000000001 -15.952700000000004 97.8181
lradius 110.03
lwrist 36.44
lhand -22.360999999999994 1.3115500000000004
lfingers 7.12502
lthumb 4.0601899999999995 31.2526
rclavicle -3.975690000000026e-16 -3.18055e-15
rhumerus -57.0254 10.416499999999996 -99.33
rradius 104.333
rwrist -10.399
rhand -16.211 39.784
rfingers 7.12502
rthumb 9.99662 10.0414
18
root -0.5429049999999995 17.1773 -6.513690000000004 1.341190000000001 3.076770000000002 0.46419599999999805
lfemur 2.7338900000000006 -2.867569999999997 -27.742300000000007
ltibia 38.49739999999998
lfoot -21.272000000000013 0.2522089999999917
ltoes -15.869700000000007
rfemur -48.86700000000005 -5.67084 21.34660000000001
rtibia 101.23600000000005
rfoot 7.715549999999997 4.983030000000001
rtoes 1.2809299999999983
lowerback 18.060299999999998 -0.3687960000000007 -4.582280000000004
upperback 0.057392700000001184 -1.274549999999996 1.6883599999999999
thorax -9.96669 -0.3286750000000016 4.799230000000008
lowerneck -21.1801 -3.3834300000000006 -1.4828799999999993
upperneck 13.9244 -4.69531 2.8886599999999993
head 7.86864 -2.0130999999999997 0.605368
lclavicle -1.8834799999999966e-14 2.723349999999999e-14
lhumerus -32.05290000000004 -14.1959 97.8407
lradius 113.68600000000002
lwrist 39.74780000000001
lhand -23.3604 2.6454100000000005
lfingers 7.12502
lthumb 3.09504 32.6027
rclavicle -1.8834799999999966e-14 2.723349999999999e-14
rhumerus -60.138600000000004 10.564599999999995 -98.3909
rradius 106.323
rwrist -10.8041
rhand -16.8089 41.2428
rfingers 7.12502
rthumb 9.41975 11.473299999999998
19
root -0.5003740000000002 17.4657 -4.896489999999979 2.324850000000003 1.48995 0.009648619999996555
lfemur 8.510709999999966 -0.7610010000000006 -26.84380000000001
ltibia 33.42220000000002
lfoot -11.647700000000006 -4.178669999999997
ltoes -27.18859999999999
rfemur -51.27620000000005 -2.9867300000000063 22.877500000000012
rtibia 89.6264
rfoot 6.522639999999998 5.733070000000007
rtoes 3.2277800000000005
lowerback 16.7289 -0.7794879999999978 -4.488479999999996
upperback -0.11988499999999835 -1.7021899999999994 2.1560000000000006
thorax -9.34959 -0.544802000000002 5.320719999999992
lowerneck -21.0158 -2.973000000000001 -1.0570399999999993
upperneck 13.7326 -4.204880000000001 2.60134
head 7.74991 -1.7908200000000003 0.507865
lclavicle -1.5157299999999986e-14 1.471009999999999e-14
lhumerus -30.79550000000001 -14.8333 97.4583
lradius 116.65900000000002
lwrist 42.74220000000001
lhand -22.6872 0.42116400000000187
lfingers 7.12502
lthumb 3.745180000000002 30.367999999999995
rclavicle -1.5157299999999986e-14 1.471009999999999e-14
rhumerus -61.7422 9.8298 -97.4649
rradius 107.29
rwrist -10.0994
rhand -16.4126 40.0033
rfingers 7.12502
rthumb 9.80212 10.2515
